# xmcd
#
# Track frame offsets:
#	150
#	23445
#	50285
#	78228
#	95994
#	120141
#	145825
#	174333
#	197897
#	222750
#	240914
#	260386
#	283691
#	301655
#	311821
#	328328
#	342673
#
# Disc length: 4796 seconds
#
# Revision: 0
# Processed by: cddbd v1.4PL0 Copyright (c) Steve Scherf et al.
# Submitted via: EasyCDDAExtractor 4.5.0.2
#
DISCID=ea12ba11
DTITLE=Egypt - Oriental Sans Frontières
DYEAR=2003
DGENRE=National Folk
TTITLE0=Hamada Helal - Enta Li Habibi
TTITLE1=Fadel Shaker - Kouli El Hilwine
TTITLE2=Ihab Tawfik - Malhoumchi Fi Tayib
TTITLE3=Habiba - Lili Ya Eini
TTITLE4=Ossama Soltane - Dalamtek Maâya
TTITLE5=Simon Hadshiti - Âlim Allah
TTITLE6=Warda - Jalek Youm
TTITLE7=Mohamed Mohyi - Rouh Galbi
TTITLE8=Nadia Mostafa - Jay Fi Ih
TTITLE9=Groupe Jiliana - Âwali
TTITLE10=Ihab Tawfik - Kalam Ouyounak
TTITLE11=Faress - Ah Minek Enta Ya Albi
TTITLE12=Habiba - Asmarani
TTITLE13=Issam Karika - Romeo
TTITLE14=El Majmouâ - Naro
TTITLE15=Iyad - Minoh
TTITLE16=Fadwa - Elli Bini Ou Bino
EXTD=
EXTT0=
EXTT1=
EXTT2=
EXTT3=
EXTT4=
EXTT5=
EXTT6=
EXTT7=
EXTT8=
EXTT9=
EXTT10=
EXTT11=
EXTT12=
EXTT13=
EXTT14=
EXTT15=
EXTT16=
PLAYORDER=
